<svg id="Capa_1" data-name="Capa 1" xmlns="http://www.w3.org/2000/svg" viewBox="0 0 617.18 215.96"><defs><style>.cls-1{fill:#fff;}</style></defs><title>002LOGOBLANCO</title><g id="Capa_2" data-name="Capa 2"><g id="Capa_1-2" data-name="Capa 1-2"><path class="cls-1" d="M331.16.85V0h12V.83A10.4,10.4,0,0,1,331.16.85Z"/><path class="cls-1" d="M331.16.85h12c19.11.85,38,2.77,56,10.12,10,4.09,19,9.43,25.71,18.17,8.4,11,7.43,26.13-2.21,34.13a21.63,21.63,0,0,1-14.75,4.84c-2.2,0-3.48-.7-3.64-3-1-15.12-11.36-22.5-23.65-27.95-12.56-5.57-26-7.72-39.58-9a306.51,306.51,0,0,0-58.81.07A468.23,468.23,0,0,0,217.1,39.58c-35,8.56-70,17.43-105,25.9-9.8,2.37-19.84,3.78-29.77,5.66-1.72.33-3.38.32-4.33,2.56-8,19.12-19.62,36.4-29,54.84C42.19,142,35.14,155.27,32.32,170.27c-1,5.58-6.68,9.26-13.94,8.76-6.54-.46-11-4.63-10.9-10.63A33.82,33.82,0,0,1,10,157.28c6.26-16.89,15.93-32,24.8-47.51,5.91-10.37,12-20.61,17.45-31.27,1.68-3.33.78-4-2.53-3.75-9.48.61-18.94.55-28.26-1.74C8.64,69.85,1.63,62.35,0,50c.06-6.42,1.89-12.08,7-16.36a15.39,15.39,0,0,1,12-3.77c5,.54,6.18,2,5.12,6.77-1.1,4.92,1.1,8.81,6.67,11.21,7.13,3.07,14.75,3.78,22.39,4.07,23.12.89,45.63-3.47,68-8.43,40.71-9,80.7-21,121.42-30C271.82,7.05,301.21,2,331.16.85Z"/><path class="cls-1" d="M615.3,139.69c-3.22-4.77-7.6-5-10.39-.25a58.32,58.32,0,0,1-8.36,11.15c-4.09,4.18-8.51,8-14.73,8.59-6,.58-8.6-2.16-7.3-7.94a58,58,0,0,1,3.22-9.89c6.19-14.71,14.85-28.09,22.61-42,5.16-9.23,11.19-18.07,13.9-28.44,1.67-6.43-1.3-11.55-6.86-12.85-6.81-1.58-13,1.71-14.64,7.68a56.37,56.37,0,0,1-2.33,6.53c-6,14.28-14.68,27.06-22.36,40.4s-16.39,26.51-20.38,41.81a4.16,4.16,0,0,1-1.54,2.46c-2.86,2.1-10.6,3.26-12.88,1.43-3.94-3.18-2.32-7.19-1.07-11a41.17,41.17,0,0,1,2.67-6.4c2.85-5.43,5.81-10.8,8.81-16.14,5.61-10,12.25-19.39,15.89-30.35,2.13-6.45.2-12.41-4.64-14.11a16,16,0,0,0-13.85,1.45A4,4,0,0,0,538.91,85c-1.16,7.7-4.8,14.41-8.68,21-6.81,11.57-13.57,23.18-20.6,34.62-3.82,6.21-7.77,12.4-13.94,16.74-2.84,2-5.95,2.9-8.82,1-3.08-2-1.93-5.39-1.07-8.21,1.95-6.38,5.35-12.09,8.67-17.81,5.9-10.17,12.37-20,17.5-30.63,2-4.18,3.84-8.44,3.43-13.3-.46-5.41-3.4-8.31-9.4-8.86-6.34-.58-10.91,2.12-12.1,7.13a52.63,52.63,0,0,1-4.1,11.14c-5.59,11.33-13,21.61-19.09,32.6-2.22,4-5.32,4.69-9.47,4.22a77.09,77.09,0,0,0,5-33.51c-1-12.86-7.8-21-19-21.6a30.9,30.9,0,0,0-17.55,4.33C421.8,88.47,417.14,95.5,414,103.79c-4.65-3.69-6.38-3.55-11,.93-1.77,1.72-3.15,3.49-6.22,3.32-12.34-.69-23.91,2.82-35.34,7-1.6.58-3.62,2.58-4.83,1.16-1.5-1.76-.84-4.41.24-6.61,1.39-2.86,3.78-4.54,6.6-5.77A34.67,34.67,0,0,1,377,101.09c1.79,0,3.21-.2,4-2.13,3.27-8.4-4-19.67-12.77-19.64-13.65.05-29.6,12.41-32.67,25.81-1.41,6.13-1.29,12.42,4.19,17,2.71,2.24,1.84,3.27-.56,4.93-9.2,6.42-16.64,14.28-19.55,25.54-3.46,13.36,2.51,22.86,16,25.87,4.71,1,9.26.45,13.84-.43,19.41-3.73,31.36-20.94,26.82-38.49-1.33-5.16-4.8-8.92-8.56-13C375.3,123,383,121.67,391.35,121c-.73,1.83-1.23,3.19-1.82,4.51a83.17,83.17,0,0,0-7,24.21c-1.63,13.49,3.41,26.61,20.16,28.83,12.2,1.62,23-1.47,32.87-8.36A64.34,64.34,0,0,0,453.82,150c2-3.27,5.13-2.66,7.4-2.26,1.67.29-.48,3-.42,4.72,0,.31-.27.61-.34.93-3.84,17,7,28.43,24,25.44,6.79-1.19,13.09-3.47,18.52-7.84,1.78-1.43,3.16-2.69,4.75.53,1.86,3.78,5.54,5.57,9.52,6.61a34.86,34.86,0,0,0,22.9-2.08c5.77-2.46,11-5.43,16.25.81.72.86,2.42.92,3.69,1.28,6.8,1.92,13.57.93,20.19-.68,17.51-4.26,30-14.56,36.9-31.39v-2C615.42,143.09,616.24,141.08,615.3,139.69ZM348.46,158.27c-2.37,1.19-4.84,1.72-6.94-.05s-1.69-4.24-.93-6.47c2-5.92,5.84-10.63,10.35-14.86,1.57-1.49,2.47-1.13,3.27.72a31,31,0,0,1,2,8.32C355.29,151,353.61,155.66,348.46,158.27Zm67.08.76c-5.63-.77-8.82-4.1-9.39-9.79-.76-7.68,2.57-17.72,7.92-23.43,4.59,11.38,13.31,17.76,24.91,20.56-5.15,9.11-14.16,13.93-23.44,12.63Zm31.61-27.58c-.83,2.46-2.28.63-3.1.21-6.62-3.4-10.18-8.79-10.16-17.88a14.91,14.91,0,0,1,3.65-9.57c4.2-4.93,10-4.1,11.94,2,2.72,8.64.46,17-2.33,25.24Z"/><path class="cls-1" d="M325,103.41c-.18-11.61-6.13-22.84-21.73-23.75a51.62,51.62,0,0,0-23.63,4.45c-2.77,1.19-4.42,1.94-6.68-1.31-3.07-4.4-8.26-3.49-12.81-2.68-4.14.73-6.4,3.39-7,7.78-.74,5.65-3.4,10.73-6.13,15.63-9.59,17.24-19.54,34.28-28.94,51.61-2.43,4.48-5.68,4.89-9.41,3.64-3.94-1.33-3.87-4.77-2.95-8.33,2-7.79,6-14.65,9.81-21.63,6-11.06,13.36-21.38,17.74-33.28,1.61-4.36,2.22-8.85-1-12.74s-7.92-3.57-12.4-2.79-7.33,3.23-7.53,8.45c-6.72-9.2-11.8-10.79-22.57-7.67A39.11,39.11,0,0,0,178.63,86c-20.12,13.65-33.14,32.72-41.51,55.17-3.37,9-10,14.6-18.57,17.29-9.14,2.88-17.68-.25-16.42-12.65.56-5.53,2.57-10.55,4.48-15.66.9-2.41,2.34-3.18,4.77-3.37,8.86-.7,17.4-2.69,24.78-7.93,10.11-7.17,16.32-16.48,15.09-29.49-.57-6-4.84-10.17-10.39-10A37.35,37.35,0,0,0,133,80.62c-12.06,3.07-21,10.91-29.63,19.32-2.85,2.78-4,8.57-8.73,7.92-4.1-.57-7.22-4.51-10.45-7.38-4-3.52-5.75-3.56-7.85,1.2-2.52,5.71-4.76,11.52-8,16.91a3.32,3.32,0,0,0,.69,4.52c1.68,1.4,3.7,2.77,5.75,2.11,1.29-.42,1.87-2.69,3.13-3.66,1.69-1.29.8-6.16,5.23-3.77,3.86,2.09,4.58,4.24,2.19,8.39a66.69,66.69,0,0,0-8.9,27.71C75.2,169.08,82,178.58,98.05,179a53.18,53.18,0,0,0,13.28-1.73c8.19-1.86,15.16-6.19,22-11,3.93,10.43,10.91,14.24,21.64,12.48a52.74,52.74,0,0,0,24.69-11.32c4.81,11,14.09,12.33,24.22,11.21,3.27-.36,3.6-.16,2.52,3-2.6,7.71-4.56,15.61-4.19,23.87.22,4.94,2.37,8.5,7.4,10,4.43,1.29,13.11-.43,15-3.22a6,6,0,0,0,.63-2.81c.42-8.37,2.61-16.35,5.38-24.17,8.32-23.53,20.8-45,32.85-66.72,6.84-12.28,18.51-16.91,32-17.51a7.72,7.72,0,0,1,7.09,3.91c.78,1.27,1.67,2.56-1.06,3-9.09,1.6-16.63,6.5-23.62,12.13-10.85,8.74-20.52,18.59-25,32.23-4.89,14.9,4.13,26.94,19.76,26.56a33.72,33.72,0,0,0,21.4-8.34C314.51,153,325.47,130.62,325,103.41Zm-199.5-1.15c.83-.69,1.93-1.77,3.05-.81s.6,2.45-.18,3.58a16,16,0,0,1-11.45,7.3A37.34,37.34,0,0,1,125.5,102.26Zm75,10.33c-7.4,12.34-15.62,24.25-20.43,38-1.45,4.13-10.89,9.39-15.18,9.16S158.75,157,159,149.59c1.28-10.27,7.21-20.21,14-29.72,4.93-6.93,10.44-13.41,18.27-17.32,3.13-1.56,6.86-3.29,9.58-.1,2.46,3,1.77,6.62-.33,10.14Zm77.92,43.53a11.68,11.68,0,0,1-1.21.88c-2.58,1.64-5.81,3.63-8.25,1.61-2.71-2.25-.61-5.58.92-8.09,7.43-12.18,17.31-21.67,30.8-27.22-4.77,12.79-11.59,24.12-22.24,32.82Z"/></g></g></svg>